# xmcd CD database file
# Copyright (C) 1993-1996 Ti Kan
#
# Track frame offsets:
# 150
# 32315
# 56202
# 78695
# 96425
# 115317
# 135650
# 155190
# 177110
# 195217
#
# Disc length: 2953 seconds
# Revision: 0
# Processed by: cddbd v1.4b41PL1 Copyright (c) Steve Scherf et al.
# Submitted via: CDSpectrumPro v3.2.328
#
DISCID=830b870a
DTITLE=Tramaine Hawkins - To A Higher Place
DYEAR=1900
DGENRE=
TTITLE0=Amazing Grace
TTITLE1=Who's Gonna Carry You
TTITLE2=That's Why I Love You Like I Do
TTITLE3=Trees
TTITLE4=I Found The Answer
TTITLE5=Touch Me
TTITLE6=Stand Your Ground
TTITLE7=Aim Your Arrow High
TTITLE8=I Don't Waana Be Misunderstood
TTITLE9=It's Never Too Late
EXTD=
EXTT0=
EXTT1=
EXTT2=
EXTT3=
EXTT4=
EXTT5=
EXTT6=
EXTT7=
EXTT8=
EXTT9=
PLAYORDER=
